<?xml version="1.0" encoding="utf-8"?>
<!-- Generator: Adobe Illustrator 19.0.0, SVG Export Plug-In . SVG Version: 6.00 Build 0)  -->
<svg version="1.1" id="Layer_1" xmlns="http://www.w3.org/2000/svg" xmlns:xlink="http://www.w3.org/1999/xlink" x="0px" y="0px"
	 viewBox="-171.1 479.9 371.6 70.2" style="enable-background:new -171.1 479.9 371.6 70.2;" xml:space="preserve">
<style type="text/css">
	.st0{fill:#DF2027;}
</style>
<g>
	<g>
		<path class="st0" d="M-7.5,527.9v-6.6l-3.6-9.9h2.8l1.3,4c0.4,1.1,0.7,2.4,1,3.6h0c0.3-1.2,0.6-2.5,1-3.7l1.2-3.9h2.7l-3.7,9.8
			v6.7H-7.5z"/>
		<path class="st0" d="M0.9,522.6c0,2.7,1.3,3.4,2.6,3.4c0.9,0,1.6-0.2,2.1-0.4l0.4,1.9c-0.8,0.3-1.9,0.6-3,0.6
			c-3.1,0-4.7-2.2-4.7-5.9c0-3.9,1.9-6.3,4.4-6.3c2.5,0,3.8,2.3,3.8,5.5c0,0.7,0,1.1-0.1,1.4H0.9z M4.1,520.8c0-1.9-0.6-3-1.5-3
			c-1.1,0-1.6,1.6-1.7,3H4.1z"/>
		<path class="st0" d="M15.7,525.2c0,0.9,0,1.9,0.1,2.7h-2.4l-0.1-1.2h0c-0.6,0.9-1.5,1.4-2.5,1.4c-1.7,0-3-1.4-3-3.5
			c0-3.1,2.6-4.4,5.3-4.4v-0.3c0-1.2-0.5-2.1-1.8-2.1c-0.9,0-1.6,0.2-2.2,0.7l-0.5-1.8c0.6-0.4,1.8-0.9,3.3-0.9
			c3.1,0,3.9,2.1,3.9,4.7V525.2z M13.1,521.9c-1,0-2.9,0.3-2.9,2.4c0,1.3,0.7,1.8,1.3,1.8c0.7,0,1.3-0.4,1.5-1.4
			c0-0.2,0.1-0.4,0.1-0.6V521.9z"/>
		<path class="st0" d="M18.1,519.3c0-1.1,0-2.4-0.1-3.4h2.3l0.1,1.8h0.1c0.5-1.2,1.4-2,2.4-2c0.2,0,0.4,0,0.6,0v2.6
			c-0.2,0-0.3,0-0.6,0c-0.9,0-1.8,0.8-2.1,2.1c0,0.3-0.1,0.7-0.1,1.1v6.3h-2.6V519.3z"/>
		<path class="st0" d="M24.6,525.4c0.4,0.3,1.2,0.6,2.1,0.6c0.9,0,1.5-0.5,1.5-1.4c0-0.7-0.3-1.2-1.4-1.9c-1.8-1.1-2.4-2.2-2.4-3.4
			c0-2.1,1.5-3.6,3.7-3.6c1,0,1.7,0.3,2.3,0.6l-0.5,1.9c-0.5-0.3-1-0.5-1.6-0.5c-0.9,0-1.3,0.6-1.3,1.2c0,0.6,0.3,1,1.4,1.7
			c1.6,1,2.5,2.1,2.5,3.6c0,2.4-1.7,3.7-3.9,3.7c-0.9,0-2-0.3-2.5-0.7L24.6,525.4z"/>
		<path class="st0" d="M40,528.1c-2.5,0-4.3-2.1-4.3-6.1c0-4.3,2.1-6.2,4.4-6.2c2.5,0,4.2,2.2,4.2,6.1
			C44.4,526.7,41.9,528.1,40,528.1L40,528.1z M40.1,526.1c1.3,0,1.6-2.4,1.6-4.2c0-1.7-0.3-4.1-1.6-4.1c-1.4,0-1.7,2.4-1.7,4.1
			C38.4,523.9,38.7,526.1,40.1,526.1L40.1,526.1z"/>
		<path class="st0" d="M46.8,527.9v-10.1h-1.6V516h1.6v-0.6c0-1.3,0.2-2.6,1.2-3.6c0.7-0.8,1.7-1.1,2.6-1.1c0.8,0,1.3,0.1,1.7,0.3
			l-0.3,2.1c-0.2-0.1-0.6-0.2-1-0.2c-1.2,0-1.6,1.2-1.6,2.4v0.6h2.1v1.9h-2.1v10.1H46.8z"/>
		<path class="st0" d="M56.8,511.6c0.8-0.2,1.9-0.3,3.1-0.3c1.7,0,3.2,0.3,4.1,1.3c0.9,0.8,1.3,2.1,1.3,3.5c0,1.7-0.5,2.8-1.2,3.7
			c-1,1.2-2.6,1.7-4,1.7c-0.3,0-0.5,0-0.7,0v6.4h-2.6V511.6z M59.4,519.3c0.2,0,0.4,0,0.6,0c1.7,0,2.7-1.2,2.7-3.1
			c0-1.5-0.6-2.8-2.4-2.8c-0.4,0-0.7,0-0.9,0.1V519.3z"/>
		<path class="st0" d="M70.3,528.1c-2.5,0-4.3-2.1-4.3-6.1c0-4.3,2.1-6.2,4.4-6.2c2.5,0,4.2,2.2,4.2,6.1
			C74.7,526.7,72.2,528.1,70.3,528.1L70.3,528.1z M70.4,526.1c1.3,0,1.6-2.4,1.6-4.2c0-1.7-0.3-4.1-1.6-4.1c-1.4,0-1.7,2.4-1.7,4.1
			C68.7,523.9,69,526.1,70.4,526.1L70.4,526.1z"/>
		<path class="st0" d="M84.6,524.4c0,1.3,0,2.5,0.1,3.5h-2.3l-0.1-1.3h0c-0.5,0.7-1.4,1.4-2.7,1.4c-2.2,0-3.1-1.6-3.1-4.8V516h2.6
			v7.1c0,1.7,0.3,2.9,1.4,2.9c0.8,0,1.2-0.7,1.3-1.2c0.1-0.3,0.1-0.6,0.1-1V516h2.6V524.4z"/>
		<path class="st0" d="M87.1,510.9h2.6v17h-2.6V510.9z"/>
		<path class="st0" d="M95.4,513v3h2.3v1.9h-2.3v6.2c0,1.5,0.6,1.8,1.2,1.8c0.3,0,0.5,0,0.8-0.1l0,2c-0.4,0.1-1,0.2-1.7,0.2
			c-0.8,0-1.6-0.2-2.1-0.7c-0.6-0.6-0.9-1.4-0.9-3.2v-6.2h-1.4V516h1.4v-2.1L95.4,513z"/>
		<path class="st0" d="M99.2,519.3c0-1.1,0-2.4-0.1-3.4h2.3l0.1,1.8h0.1c0.5-1.2,1.4-2,2.4-2c0.2,0,0.4,0,0.6,0v2.6
			c-0.2,0-0.3,0-0.6,0c-0.9,0-1.8,0.8-2.1,2.1c0,0.3-0.1,0.7-0.1,1.1v6.3h-2.6V519.3z"/>
		<path class="st0" d="M108.3,516l1.3,6.5c0.2,0.8,0.3,1.5,0.4,2.2h0c0.1-0.6,0.2-1.4,0.4-2.2l1.2-6.5h2.6l-2.2,8.5
			c-0.6,2.6-1.4,5.1-2.8,6.8c-0.9,1.1-2,1.7-2.5,1.9l-0.9-2.3c0.6-0.2,1.1-0.7,1.6-1.2c0.5-0.5,0.8-1.1,1-1.7
			c0.1-0.2,0.1-0.4,0.1-0.6c0-0.1,0-0.3-0.1-0.4l-3.2-11H108.3z"/>
		<path class="st0" d="M126.2,520.4h-3.9v5.2h4.5v2.3h-7.1v-16.5h6.8v2.3h-4.2v4.5h3.9V520.4z"/>
		<path class="st0" d="M130.5,516l0.9,2.3c0.3,0.7,0.5,1.4,0.7,2h0c0.2-0.7,0.4-1.4,0.7-2l0.9-2.3h2.6l-2.8,5.9l2.8,6.1h-2.8l-1-2.5
			c-0.2-0.6-0.4-1.2-0.7-1.9h0c-0.2,0.7-0.4,1.3-0.7,2l-0.9,2.4h-2.6l2.7-6l-2.7-6H130.5z"/>
		<path class="st0" d="M143.6,527.7c-0.4,0.2-1.1,0.4-2,0.4c-2.8,0-4.7-2.1-4.7-6c0-3.6,2-6.2,5.1-6.2c0.7,0,1.4,0.2,1.7,0.3
			l-0.4,2.1c-0.3-0.1-0.7-0.3-1.3-0.3c-1.7,0-2.6,1.8-2.6,4c0,2.5,1,3.9,2.6,3.9c0.5,0,0.9-0.1,1.3-0.3L143.6,527.7z"/>
		<path class="st0" d="M147,522.6c0,2.7,1.2,3.4,2.6,3.4c0.9,0,1.6-0.2,2.1-0.4l0.4,1.9c-0.8,0.3-1.9,0.6-3,0.6
			c-3.1,0-4.7-2.2-4.7-5.9c0-3.9,1.9-6.3,4.4-6.3c2.5,0,3.8,2.3,3.8,5.5c0,0.7,0,1.1-0.1,1.4H147z M150.3,520.8c0-1.9-0.6-3-1.5-3
			c-1.1,0-1.6,1.6-1.7,3H150.3z"/>
		<path class="st0" d="M154.6,510.9h2.6v17h-2.6V510.9z"/>
		<path class="st0" d="M159.7,510.9h2.6v17h-2.6V510.9z"/>
		<path class="st0" d="M167,522.6c0,2.7,1.2,3.4,2.6,3.4c0.9,0,1.6-0.2,2.1-0.4l0.4,1.9c-0.8,0.3-1.9,0.6-3,0.6
			c-3.1,0-4.7-2.2-4.7-5.9c0-3.9,1.9-6.3,4.4-6.3c2.5,0,3.8,2.3,3.8,5.5c0,0.7,0,1.1-0.1,1.4H167z M170.2,520.8c0-1.9-0.6-3-1.5-3
			c-1.1,0-1.6,1.6-1.7,3H170.2z"/>
		<path class="st0" d="M174.5,519.3c0-1.3,0-2.3-0.1-3.4h2.3l0.1,1.4h0c0.6-1,1.6-1.6,2.8-1.6c2,0,3.1,1.5,3.1,4.3v7.8h-2.6v-7.6
			c0-1.2-0.2-2.4-1.4-2.4c-0.6,0-1.2,0.5-1.5,1.5c-0.1,0.2-0.1,0.6-0.1,1.1v7.4h-2.6V519.3z"/>
		<path class="st0" d="M191.5,527.7c-0.4,0.2-1.1,0.4-2,0.4c-2.8,0-4.7-2.1-4.7-6c0-3.6,2-6.2,5.1-6.2c0.7,0,1.4,0.2,1.7,0.3
			l-0.4,2.1c-0.3-0.1-0.7-0.3-1.3-0.3c-1.7,0-2.6,1.8-2.6,4c0,2.5,1,3.9,2.6,3.9c0.5,0,0.9-0.1,1.3-0.3L191.5,527.7z"/>
		<path class="st0" d="M194.9,522.6c0,2.7,1.3,3.4,2.6,3.4c0.9,0,1.6-0.2,2.1-0.4l0.4,1.9c-0.8,0.3-1.9,0.6-3,0.6
			c-3.1,0-4.7-2.2-4.7-5.9c0-3.9,1.9-6.3,4.4-6.3c2.5,0,3.8,2.3,3.8,5.5c0,0.7,0,1.1-0.1,1.4H194.9z M198.1,520.8c0-1.9-0.6-3-1.5-3
			c-1.1,0-1.6,1.6-1.7,3H198.1z"/>
	</g>
	<g>
		<path class="st0" d="M-166.2,528.1c-3.3,0-4.9-3.5-4.9-8.5c0-5,1.9-8.4,5.2-8.4c3.5,0,4.8,3.8,4.8,8.2
			C-161.1,525.6-163.3,528.1-166.2,528.1L-166.2,528.1z M-166,525.8c1.7,0,2.2-3,2.2-6.3c0-3-0.5-6.1-2.3-6.1
			c-1.7,0-2.4,3.1-2.3,6.1C-168.4,522.9-167.8,525.8-166,525.8L-166,525.8z"/>
		<path class="st0" d="M-157.2,516l1.2,6c0.2,0.9,0.3,2,0.5,3.1h0c0.1-1.1,0.3-2.1,0.5-3.1l1.2-6h2.6l-3.2,11.9h-2.4L-160,516
			H-157.2z"/>
		<path class="st0" d="M-148,522.6c0,2.7,1.3,3.4,2.6,3.4c0.9,0,1.6-0.2,2.1-0.4l0.4,1.9c-0.8,0.3-1.9,0.6-3,0.6
			c-3.1,0-4.7-2.2-4.7-5.9c0-3.9,1.9-6.3,4.4-6.3c2.5,0,3.8,2.3,3.8,5.5c0,0.7,0,1.1-0.1,1.4H-148z M-144.8,520.8c0-1.9-0.6-3-1.5-3
			c-1.1,0-1.6,1.6-1.7,3H-144.8z"/>
		<path class="st0" d="M-140.5,519.3c0-1.1,0-2.4-0.1-3.4h2.3l0.1,1.8h0.1c0.5-1.2,1.4-2,2.4-2c0.2,0,0.4,0,0.6,0v2.6
			c-0.2,0-0.3,0-0.6,0c-0.9,0-1.8,0.8-2.1,2.1c0,0.3-0.1,0.7-0.1,1.1v6.3h-2.6V519.3z"/>
	</g>
	<g>
		<g>
			<polygon class="st0" points="-72.9,488.2 -70.2,486.8 -67.5,488.2 -68,485.2 -65.8,483.1 -68.8,482.6 -70.2,479.9 -71.5,482.6 
				-74.6,483.1 -72.4,485.2 			"/>
			<polygon class="st0" points="-22.7,546.8 -19.5,545.1 -16.3,546.8 -16.9,543.3 -14.3,540.7 -17.9,540.2 -19.5,537 -21.1,540.2 
				-24.7,540.7 -22.1,543.3 			"/>
			<path class="st0" d="M-28.4,516.4c-3.8-4.2-9.5-6.3-15.2-6.3c-4.6,0-8,1.3-11.1,3.2l0.4-7.6c0,0,1.3,0,7.4,0
				c22.4,0,21.9-18.3,21.9-18.3s-7.9,2.8-20.5,2.8c-3.9,0-23.4,0-23.4,0l-1.7,30.5l11.8,5.9c2.8-2.2,5.4-3.7,9-3.7
				c4.1,0,6.9,2.2,6.9,5.6v0.2c0,3.2-2.7,5.6-7.4,5.6c-4.8,0-9.5-2.3-14.5-6.4l-10.8,12.6c6.5,5.9,14.2,9.6,25.5,9.6
				c12.4,0,22.1-5.3,25.1-14.9C-21.7,522.8-28.4,516.4-28.4,516.4z"/>
		</g>
		<path class="st0" d="M-79.8,516.4c-3.8-4.2-9.5-6.3-15.2-6.3c-4.6,0-8,1.3-11.1,3.2l0.4-7.6c0,0,1.3,0,7.4,0
			c22.4,0,21.9-18.3,21.9-18.3s-7.9,2.8-20.5,2.8c-3.9,0-23.4,0-23.4,0l-1.7,30.5l11.8,5.9c2.8-2.2,5.4-3.7,9-3.7
			c4.1,0,6.9,2.2,6.9,5.6v0.2c0,3.2-2.7,5.6-7.4,5.6c-4.8,0-9.5-2.3-14.5-6.4l-10.8,12.6c6.5,5.9,14.2,9.6,25.5,9.6
			c12.4,0,22.1-5.3,25.1-14.9C-73.1,522.8-79.8,516.4-79.8,516.4z M-87.6,493.4l0.7-1.8l1,1.7l2,0.1l-1.3,1.5l0.5,1.9l-1.8-0.8
			l-1.7,1l0.2-2l-1.5-1.3L-87.6,493.4z"/>
	</g>
</g>
</svg>
