<svg id="Layer_1" data-name="Layer 1" xmlns="http://www.w3.org/2000/svg" viewBox="0 0 219.1 140.38"><defs><style>.cls-1{fill:#df2027;}</style></defs><title>logo</title><path class="cls-1" d="M507.41,246.83a5.1,5.1,0,1,0,5.1-5.1A5.1,5.1,0,0,0,507.41,246.83Zm-1.23,0a6.33,6.33,0,1,1,6.33,6.33A6.33,6.33,0,0,1,506.17,246.83Zm3.38,3.6v-7.21h3.07a5.29,5.29,0,0,1,1.68.19,1.66,1.66,0,0,1,.84.69,2.07,2.07,0,0,1,.32,1.14,1.93,1.93,0,0,1-.48,1.34,2.28,2.28,0,0,1-1.42.67,3.28,3.28,0,0,1,.77.6,7.88,7.88,0,0,1,.83,1.17l0.88,1.41H514.3l-1-1.57a10.43,10.43,0,0,0-.77-1.06,1.14,1.14,0,0,0-.44-0.3,2.45,2.45,0,0,0-.74-0.08H511v3h-1.46Zm1.46-4.16h1.08a5.59,5.59,0,0,0,1.31-.09,0.79,0.79,0,0,0,.41-0.31,0.94,0.94,0,0,0,.15-0.54,0.86,0.86,0,0,0-.2-0.59,0.88,0.88,0,0,0-.55-0.28q-0.18,0-1.06,0H511v1.83Zm-19.56,56a1.9,1.9,0,0,1,.69-0.11q1.16,2.69,3.25,6.72t7.28,4a5.54,5.54,0,0,0,4-1.5,5.35,5.35,0,0,0,1.55-4q0-2.53-3.18-4.19t-7.28-3.48q-4-1.81-5.42-3.71a6.79,6.79,0,0,1-.92-1.9v8.25ZM414,304.16q0-.47-5.1-4.52t-9.2-8a30.53,30.53,0,0,1-5.56-6.68,25.46,25.46,0,0,0-1.92-3.24,1.23,1.23,0,0,0-.79-0.61q-1.32,0-3.18,1.89a7.16,7.16,0,0,0-1.79,5.13q0,5.94,6.09,12.22T406,306.65a19.15,19.15,0,0,0,5.23-.81Q414,305,414,304.16Zm8.13-77.51-1.85,2.68-2.75,1.88,2.77,1.86,1.82,2.7L424,233l2.68-1.84L424,229.32Zm-103.4,59.91c0-.77-1.42,4.58-1.42,8.06,0,35.22,47,63.23,104.95,63.23S527.65,330,527.07,294.95a39.83,39.83,0,0,0-1.31-8.6c0,30.84-46.29,56-103.46,56S318.77,317.39,318.77,286.55Zm172.6,39c19.71-9.69,31.9-23.85,32-38.11,0.12-11.65-8.87-23.42-23.58-32.92a3.18,3.18,0,0,1,.14.38q0,0.61-4.31,2.86t-4.21,8.48V287a8,8,0,0,1,3.16-4.32,15.39,15.39,0,0,1,9-2.53,33.38,33.38,0,0,1,4.65.55q3.33,0.55,3.33,1.42l0.54,6.56a0.81,0.81,0,0,1-1,.79,21.39,21.39,0,0,0-3.88-4.74,7.81,7.81,0,0,0-5.73-2.13,5.72,5.72,0,0,0-3.49,1,3.37,3.37,0,0,0-1.39,3q0,2.84,3.56,4.42,3.49,1.26,6.74,2.61a14,14,0,0,1,5.27,3.64q2,2.21,2,6.48,0,5.77-4,8.46a16,16,0,0,1-9.22,2.69,33.85,33.85,0,0,1-5.35-.48,12.84,12.84,0,0,1-4-1l-0.14,10.08A17.89,17.89,0,0,1,491.37,325.51Zm-138.66,0c18.06,9,42.46,14.5,69.37,14.5,25.8,0,49.39-5.17,67.31-13.53a2.25,2.25,0,0,1-.64-0.3,4.82,4.82,0,0,1-1.1-1L439.48,272a3,3,0,0,0-1.8-1.33q-0.8,0-.8,1.64v34.73q0,12.87,6.41,14.4t6.41,3.07a1.08,1.08,0,0,1-1,1.12,13.88,13.88,0,0,1-2.8.2l-11.82-.41-8.62.41c-0.67.07-1.17,0.1-1.5,0.1q-1.6,0-1.6-1.33t4.81-4A9.29,9.29,0,0,0,432,312v-2.39a10.1,10.1,0,0,1-4.62,1.06,11.6,11.6,0,0,1-5.56-1.55,31.75,31.75,0,0,1-5.23-3.71,19.48,19.48,0,0,1-7.41,3.91,31.73,31.73,0,0,1-8.87,1.35q-8.15,0-12.92-3.46l5,6.83q4.91,6.85,8.51,8.28t3.7,2.25a1.16,1.16,0,0,1-1.3,1.32l-7.51-.41q-0.8,0-3,.2t-3.7.2a5.78,5.78,0,0,1-2.6-.51,8.92,8.92,0,0,1-2.3-2.45L364.2,295l-1.5-1.94a1.65,1.65,0,0,0-1-.92,3.59,3.59,0,0,0-2,1.33q-1.2,1.22-2.3,2.55a6.46,6.46,0,0,0-1.4,2.14,5.6,5.6,0,0,0-.3,1.74v14.91q0,5.41,4.91,7t4.91,2.76a1,1,0,0,1-.8,1,8.25,8.25,0,0,1-2,.2Zm-13.49-67.21c-11.37,8.72-18,18.94-18,29.12,0,11.95,8,23,20.94,31.95a20.88,20.88,0,0,0,1.25-8.2V266.72Q343.37,259.94,339.22,258.28Zm87.47-24.06-0.8.55-3.72,5.37-3.59-5.26-1-.65c-28.81.75-54.48,8.59-72.08,19.68l1.36,0,13.92-.41q2.11,0,2.1,1.23,0,1.53-3.61,2.24t-3.61,7.56v25q0.1,0.82.5,0.72,0.7,0.1,2.5-1.74l13.22-13.18q3.6-3.57,7.31-7.15,5.21-5.62,5.21-8.58,0-1.64-3.11-2.35t-3-1.84q0-1.94,2.3-1.94l10.92,0.41,9.41-.41a4.39,4.39,0,0,1,1.9.31,1.27,1.27,0,0,1,.7,1.43q0,0.51-4.21,2.55a34.11,34.11,0,0,0-8.71,6.13L373,280.61a15.83,15.83,0,0,0-1.5,1.53,2.74,2.74,0,0,0-.7,1.43q0,0.92,2.4,4.19l8.05,11.06a14,14,0,0,1-.78-4.58,15.48,15.48,0,0,1,3.18-9.85c2.15-2.57,4.68-3.69,7-5.54q-0.53-1.55-1-3a14.22,14.22,0,0,1-.4-3.51,9.85,9.85,0,0,1,3.18-7.63,11.49,11.49,0,0,1,7.94-2.9,15.54,15.54,0,0,1,4.63.74l4.83,1.75a1.79,1.79,0,0,0,1.06-.47,1.94,1.94,0,0,1,1.12-.54,0.6,0.6,0,0,1,.6.27,2.83,2.83,0,0,1,.13,1.08,45.69,45.69,0,0,0,.46,5.4,46.7,46.7,0,0,1,.46,4.79q0,1.42-1,1.42-0.73,0-1.66-3a15,15,0,0,0-3.71-5.94,9.22,9.22,0,0,0-6.95-2.9,4.35,4.35,0,0,0-3.44,1.35,5.33,5.33,0,0,0-1.19,3.64q0,4.32,5.16,11a101.11,101.11,0,0,0,11.32,12.15q6.09,5.47,7.15,5.47,0.46,0,1.52-2.09a10.73,10.73,0,0,0,1.06-4.79q0-4.93-3.77-5.94t-3.77-1.69c0-.63.42-0.94,1.26-0.94l6.82,0.27q1.65,0,2.91-.07c0.84,0,1.7-.11,2.58-0.2a0.86,0.86,0,0,1,1.06.88,1.48,1.48,0,0,1-1.19,1.21q-1.19.41-1.66,3.58a32.65,32.65,0,0,1-1.52,6.48q-1.19,2.43-2.32,4.86,0,1.75,3.64,4.05c2.43,1.49,2.63,1.54,3.69,1.54a3.15,3.15,0,0,0,2.26-1V273.15q0-11.54-5.61-14.4t-5.61-3.47a1.52,1.52,0,0,1,1.7-1.74c0.67,0,1.73.07,3.2,0.2l2.4,0.21,10.52-.41q2.1,0,2.7,1a13.33,13.33,0,0,0,1.1,1.63l40.26,45a26,26,0,0,0,1.9,1.94,2.29,2.29,0,0,0,1.2.71q0.8,0,.8-3.78v-34q0-5.41-6.11-7.66t-6.11-3.17a1.48,1.48,0,0,1,1.6-1.74l11.42,0.41,10.71-.41h0.29C480.71,242.64,455.23,234.93,426.68,234.21Zm-4.5-11.94,3.56,5.23,3,2.1c58.34,2.14,103.07,31,103.07,67,0,36.3-49.05,66-109.56,66s-109.54-29.75-109.54-66c0-36.46,45.46-64.92,102.83-67l3-2.06Zm80.92,46.87a10.14,10.14,0,0,1-3,6.82q-2.95,3.31-5.09,3.31a0.54,0.54,0,0,1-.6-0.61,10.75,10.75,0,0,1,1.85-2,5.41,5.41,0,0,0,1.9-3.92,4.34,4.34,0,0,0-1.8-3.41,7.24,7.24,0,0,1-1.75-1.78,3.47,3.47,0,0,1,1.3-1.63q1.35-1.22,2.1-1.93a2.07,2.07,0,0,1,1.3-.71q1.35,0,2.55,1.83A7,7,0,0,1,503.11,269.14Z" transform="translate(-312.75 -222.27)"/></svg>