<?xml version="1.0" encoding="utf-8"?>
<!-- Generator: Adobe Illustrator 19.0.0, SVG Export Plug-In . SVG Version: 6.00 Build 0)  -->
<svg version="1.1" id="Layer_1" xmlns="http://www.w3.org/2000/svg" xmlns:xlink="http://www.w3.org/1999/xlink" x="0px" y="0px"
	 viewBox="0 0 679.5 370.8" style="enable-background:new 0 0 679.5 370.8;" xml:space="preserve">
<style type="text/css">
	.st0{fill:#DF2027;}
	.st1{fill-rule:evenodd;clip-rule:evenodd;fill:#DF2027;}
	.st2{fill:#A8A8A8;}
</style>
<g>
	<g>
		<path class="st0" d="M446.5,344.7l-1.7-1l29.3-47.6H617c33.4,0,60.5-27.1,60.5-60.5v-173C677.5,29.1,650.4,2,617,2H62.5
			C29.1,2,2,29.1,2,62.5v173C2,268.9,29.1,296,62.5,296h182.2v2H62.5C28,298,0,270,0,235.5v-173C0,28,28,0,62.5,0H617
			c34.5,0,62.5,28,62.5,62.5v173c0,34.5-28,62.5-62.5,62.5H475.2L446.5,344.7z"/>
	</g>
	<g>
		<path class="st0" d="M406.3,369.5h-132c-16.7,0-30.3-13.6-30.3-30.3V219.5c0-16.7,13.6-30.3,30.3-30.3h132
			c16.7,0,30.3,13.6,30.3,30.3v119.7C436.7,355.9,423.1,369.5,406.3,369.5z M274.3,191.2c-15.6,0-28.3,12.7-28.3,28.3v119.7
			c0,15.6,12.7,28.3,28.3,28.3h132c15.6,0,28.3-12.7,28.3-28.3V219.5c0-15.6-12.7-28.3-28.3-28.3H274.3z"/>
	</g>
	<g>
		<path class="st0" d="M382.1,283.7c0,1.3,1.1,2.4,2.4,2.4c1.3,0,2.4-1.1,2.4-2.4c0-1.3-1.1-2.4-2.4-2.4
			C383.2,281.3,382.1,282.4,382.1,283.7z M381.5,283.7c0-1.7,1.4-3,3-3c1.7,0,3,1.4,3,3c0,1.7-1.4,3-3,3
			C382.9,286.7,381.5,285.4,381.5,283.7z M383.1,285.4V282h1.5c0.4,0,0.6,0,0.8,0.1c0.2,0.1,0.3,0.2,0.4,0.3
			c0.1,0.2,0.2,0.3,0.2,0.5c0,0.3-0.1,0.5-0.2,0.6c-0.2,0.2-0.4,0.3-0.7,0.3c0.1,0.1,0.3,0.2,0.4,0.3c0.1,0.1,0.2,0.3,0.4,0.6
			l0.4,0.7h-0.8l-0.5-0.8c-0.2-0.3-0.3-0.4-0.4-0.5c-0.1-0.1-0.1-0.1-0.2-0.1c-0.1,0-0.2,0-0.4,0h-0.1v1.4H383.1z M383.8,283.4h0.5
			c0.3,0,0.5,0,0.6,0c0.1,0,0.1-0.1,0.2-0.1c0-0.1,0.1-0.2,0.1-0.3c0-0.1,0-0.2-0.1-0.3c-0.1-0.1-0.1-0.1-0.3-0.1
			c-0.1,0-0.2,0-0.5,0h-0.5V283.4z M374.5,310.2c0.1,0,0.2-0.1,0.3-0.1c0.4,0.9,0.9,1.9,1.6,3.2c0.7,1.3,1.8,1.9,3.5,1.9
			c0.8,0,1.4-0.2,1.9-0.7c0.5-0.5,0.7-1.1,0.7-1.9c0-0.8-0.5-1.5-1.5-2c-1-0.5-2.2-1.1-3.5-1.7c-1.3-0.6-2.1-1.2-2.6-1.8
			c-0.2-0.3-0.3-0.6-0.4-0.9V310.2z M337.5,311.1c0-0.2-0.8-0.9-2.4-2.2c-1.6-1.3-3.1-2.6-4.4-3.8c-1.3-1.3-2.2-2.3-2.7-3.2
			c-0.5-0.9-0.8-1.4-0.9-1.5c-0.1-0.2-0.3-0.3-0.4-0.3c-0.4,0-0.9,0.3-1.5,0.9c-0.6,0.6-0.9,1.4-0.9,2.4c0,1.9,1,3.8,2.9,5.8
			c1.9,2,4.1,3,6.4,3c0.8,0,1.6-0.1,2.5-0.4C337.1,311.6,337.5,311.4,337.5,311.1z M341.4,274.1l-0.9,1.3l-1.3,0.9l1.3,0.9l0.9,1.3
			l0.9-1.3l1.3-0.9l-1.3-0.9L341.4,274.1z M292.1,302.7c0-0.4-0.7,2.2-0.7,3.8c0,16.8,22.4,30.2,50.1,30.2c27.7,0,50.3-13.3,50-30
			c0-1.6-0.6-4.4-0.6-4.1c0,14.7-22.1,26.8-49.4,26.8C314.2,329.3,292.1,317.4,292.1,302.7z M374.5,321.3
			c9.4-4.6,15.2-11.4,15.3-18.2c0.1-5.6-4.2-11.2-11.3-15.7c0,0.1,0,0.1,0.1,0.2c0,0.2-0.7,0.6-2.1,1.4c-1.3,0.7-2,2-2,4v9.9
			c0.3-0.9,0.8-1.5,1.5-2.1c1.2-0.8,2.6-1.2,4.3-1.2c0.4,0,1.2,0.1,2.2,0.3c1.1,0.2,1.6,0.4,1.6,0.7l0.3,3.1c0,0.3-0.2,0.4-0.5,0.4
			c-0.5-0.9-1.1-1.6-1.8-2.3c-0.7-0.7-1.6-1-2.7-1c-0.7,0-1.2,0.2-1.7,0.5c-0.4,0.3-0.7,0.8-0.7,1.4c0,0.9,0.6,1.6,1.7,2.1
			c1.1,0.4,2.2,0.8,3.2,1.2c1,0.4,1.9,1,2.5,1.7c0.6,0.7,1,1.7,1,3.1c0,1.8-0.6,3.2-1.9,4c-1.3,0.9-2.7,1.3-4.4,1.3
			c-0.8,0-1.6-0.1-2.6-0.2c-0.9-0.1-1.6-0.3-1.9-0.5l-0.1,4.8C374.5,320.7,374.5,321,374.5,321.3z M308.3,321.3
			c8.6,4.3,20.3,6.9,33.1,6.9c12.3,0,23.6-2.5,32.1-6.5c-0.1,0-0.2-0.1-0.3-0.1c-0.2-0.1-0.3-0.3-0.5-0.5l-23-25.4
			c-0.4-0.4-0.6-0.6-0.9-0.6c-0.3,0-0.4,0.3-0.4,0.8v16.6c0,4.1,1,6.4,3.1,6.9c2,0.5,3.1,0.9,3.1,1.5c0,0.3-0.2,0.5-0.5,0.5
			c-0.3,0.1-0.7,0.1-1.3,0.1l-5.6-0.2l-4.1,0.2c-0.3,0-0.6,0-0.7,0c-0.5,0-0.8-0.2-0.8-0.6c0-0.4,0.8-1,2.3-1.9
			c1.5-0.9,2.3-2.3,2.3-4.1v-1.1c-0.7,0.3-1.4,0.5-2.2,0.5c-0.9,0-1.7-0.2-2.7-0.7c-0.9-0.5-1.7-1.1-2.5-1.8
			c-0.9,0.8-2.1,1.4-3.5,1.9c-1.5,0.4-2.9,0.6-4.2,0.6c-2.6,0-4.6-0.5-6.2-1.7l2.4,3.3c1.6,2.2,2.9,3.5,4.1,3.9
			c1.2,0.4,1.8,0.8,1.8,1.1c0,0.4-0.2,0.6-0.6,0.6l-3.6-0.2c-0.3,0-0.7,0-1.4,0.1c-0.7,0.1-1.3,0.1-1.8,0.1c-0.5,0-0.9-0.1-1.2-0.2
			c-0.3-0.2-0.7-0.6-1.1-1.2l-9.5-13.3c-0.3-0.3-0.5-0.6-0.7-0.9c-0.2-0.3-0.4-0.4-0.5-0.4c-0.2,0-0.5,0.2-1,0.6
			c-0.4,0.4-0.7,0.8-1.1,1.2c-0.4,0.4-0.6,0.7-0.7,1c-0.1,0.3-0.1,0.6-0.1,0.8v0.7v6.4c0,1.7,0.8,2.8,2.3,3.4c1.6,0.5,2.3,1,2.3,1.3
			c0,0.3-0.1,0.4-0.4,0.5c-0.3,0.1-0.6,0.1-1,0.1L308.3,321.3z M301.8,289.2c-5.4,4.2-8.6,9-8.6,13.9c0,5.7,3.8,11,10,15.3
			c0.4-0.9,0.6-2.2,0.6-3.9v-21.2C303.8,291,303.2,289.7,301.8,289.2z M343.6,277.7l-0.4,0.3l-1.8,2.6l-1.7-2.5l-0.5-0.3
			c-13.8,0.4-26,4.1-34.4,9.4l0.6,0l6.6-0.2c0.7,0,1,0.2,1,0.6c0,0.5-0.6,0.8-1.7,1.1c-1.1,0.2-1.7,1.4-1.7,3.6v11.2v0.8
			c0,0.3,0.1,0.4,0.2,0.3c0.2,0,0.6-0.2,1.2-0.8l6.3-6.3c1.1-1.1,2.3-2.3,3.5-3.4c1.7-1.8,2.5-3.2,2.5-4.1c0-0.5-0.5-0.9-1.5-1.1
			c-1-0.2-1.4-0.5-1.4-0.9c0-0.6,0.4-0.9,1.1-0.9l5.2,0.2l4.5-0.2c0.4,0,0.7,0.1,0.9,0.1c0.2,0.1,0.3,0.3,0.3,0.7
			c0,0.2-0.7,0.6-2,1.2c-1.3,0.6-2.7,1.6-4.2,2.9l-8.4,7.9c-0.2,0.2-0.5,0.4-0.7,0.7c-0.2,0.3-0.3,0.5-0.3,0.7c0,0.3,0.4,1,1.1,2
			l3.8,5.3c-0.2-0.7-0.4-1.4-0.4-2.2c0-1.8,0.5-3.4,1.5-4.7c1-1.2,2.2-1.8,3.3-2.6c-0.2-0.5-0.3-1-0.5-1.5c-0.1-0.5-0.2-1.1-0.2-1.7
			c0-1.5,0.5-2.7,1.5-3.6c1-0.9,2.3-1.4,3.8-1.4c0.7,0,1.5,0.1,2.2,0.4c0.8,0.3,1.5,0.6,2.3,0.8c0.1,0,0.3-0.1,0.5-0.2
			c0.2-0.2,0.4-0.3,0.5-0.3c0.1,0,0.2,0,0.3,0.1c0,0.1,0.1,0.3,0.1,0.5c0,0.6,0.1,1.4,0.2,2.6c0.1,1.1,0.2,1.9,0.2,2.3
			c0,0.5-0.2,0.7-0.5,0.7c-0.2,0-0.5-0.5-0.8-1.4c-0.3-1-0.9-1.9-1.8-2.8c-0.9-0.9-2-1.4-3.3-1.4c-0.7,0-1.3,0.2-1.6,0.6
			c-0.4,0.4-0.6,1-0.6,1.7c0,1.4,0.8,3.1,2.5,5.3c1.7,2.1,3.5,4,5.4,5.8c1.9,1.7,3.1,2.6,3.4,2.6c0.1,0,0.4-0.3,0.7-1
			c0.3-0.7,0.5-1.4,0.5-2.3c0-1.6-0.6-2.5-1.8-2.8c-1.2-0.3-1.8-0.6-1.8-0.8c0-0.3,0.2-0.5,0.6-0.5l3.3,0.1c0.5,0,1,0,1.4,0
			c0.4,0,0.8-0.1,1.2-0.1c0.3,0,0.5,0.1,0.5,0.4c0,0.2-0.2,0.4-0.6,0.6c-0.4,0.1-0.6,0.7-0.8,1.7c-0.1,1-0.4,2-0.7,3.1
			c-0.4,0.8-0.7,1.5-1.1,2.3c0,0.6,0.6,1.2,1.7,1.9c1.2,0.7,1.3,0.7,1.8,0.7c0.2,0,0.7-0.1,1.1-0.5v-14.8c0-3.7-0.9-6-2.7-6.9
			c-1.8-0.9-2.7-1.5-2.7-1.7c0-0.6,0.3-0.8,0.8-0.8c0.3,0,0.8,0,1.5,0.1c0.7,0.1,1.1,0.1,1.1,0.1l5-0.2c0.7,0,1.1,0.2,1.3,0.5
			c0.2,0.3,0.4,0.6,0.5,0.8l19.2,21.5c0.4,0.4,0.7,0.7,0.9,0.9c0.3,0.2,0.4,0.3,0.6,0.3c0.3,0,0.4-0.6,0.4-1.8v-16.2
			c0-1.7-1-2.9-2.9-3.7c-1.9-0.7-2.9-1.2-2.9-1.5c0-0.6,0.3-0.8,0.8-0.8l5.5,0.2l5.1-0.2l0.1,0C369.4,281.7,357.2,278,343.6,277.7z
			 M341.4,272l1.7,2.5l1.4,1c27.9,1,49.2,14.8,49.2,32c0,17.3-23.4,31.5-52.3,31.5c-28.9,0-52.3-14.2-52.3-31.5
			c0-17.4,21.7-31,49.1-32l1.4-1L341.4,272z M380.1,294.4c0,1.1-0.5,2.2-1.4,3.3c-0.9,1.1-1.7,1.6-2.4,1.6c-0.2,0-0.3-0.1-0.3-0.3
			c0-0.1,0.3-0.4,0.9-0.9c0.6-0.6,0.9-1.2,0.9-1.9c0-0.6-0.3-1.2-0.9-1.6c-0.6-0.5-0.8-0.8-0.8-0.9c0-0.1,0.2-0.4,0.6-0.8
			c0.4-0.4,0.8-0.7,1-0.9c0.2-0.2,0.4-0.3,0.6-0.3c0.4,0,0.8,0.3,1.2,0.9C379.9,293,380.1,293.7,380.1,294.4z"/>
		<path class="st1" d="M375.3,241.5c0.2-0.4-0.3-0.6-0.5-0.2c-0.5,1.2-2.1,2.6-3.5,2c-0.7-0.2-1-0.9-1-2.2v-7.3
			c0-2.6,0.8-3.6,2.7-3.6h1.3c0.2,0,0.3-0.1,0.3-0.3c0-0.2-0.1-0.3-0.3-0.3h-3c-0.5,0-1-0.3-1-1.1v-1.8c0-0.3-0.1-0.4-0.3-0.5
			l-1.9-0.6c-0.3-0.1-0.5,0-0.5,0.5v14.7c0,1.9,0.8,3.1,2.3,3.4C372.1,244.8,374.2,243.8,375.3,241.5z M365.8,232
			c0.8-1.1,0.2-1.9-0.5-2.2c-1.7-0.9-3.5,0.6-4.9,2.2c-0.4,0.4-0.6,0.3-0.7-0.1c-0.5-2-1.7-2.5-2.6-2.5c-0.8,0-1.3,0.1-1.7,0.3
			c-0.3,0.2-0.1,0.6,0.2,0.5c0.9-0.4,1.4,0.1,1.4,1.1v12.6c0,0.6,0.2,0.6,0.5,0.5l2.2-0.6c0.1,0,0.3-0.2,0.3-0.4v-7.6
			c0-3.4,2.8-6.5,4.1-4.1C364.6,232.8,365.2,232.9,365.8,232z M356.4,241.1c0.2-0.4-0.3-0.5-0.5-0.2c-0.6,1.6-1.8,2.8-2.9,2.3
			c-0.7-0.3-0.9-0.9-0.9-2.8v-7.5c0-2.7-2-3.5-4.9-3.5c-2.9,0-5.2,1-5.8,3c-0.4,1.3,2.8,1.8,3,0.5c0.2-1.4,0.7-3,2.8-3
			c2.1,0,2.1,1.7,2.1,3.2v0.7c0,0.8-0.5,1.3-1.4,1.5c-4.7,1.1-7.4,3.2-7.4,5.6c0,2.4,1.7,3.6,4.3,3.6c2,0,3.1-1,3.7-2.1
			c0.2-0.3-0.1-0.5-0.3-0.3c-0.8,1.1-1.8,1.4-2.9,1.4c-1.2,0-2-1.1-2-2.7c0-2.5,1.5-3.9,4.7-4.8c1-0.3,1.3,0.1,1.3,0.8v3.5
			c0,2.5,0.6,3.7,2.2,4.1C353.5,244.8,355.4,243.6,356.4,241.1z M341.3,241.1c0.2-0.4-0.3-0.6-0.5-0.2c-0.4,1.2-2,2.9-3.4,2.4
			c-0.7-0.3-0.8-1-0.8-2.9v-6.2c0-3.7-1.6-4.9-4.1-4.9c-1.3,0-2.3,0.4-3.3,1.3c-0.5,0.4-0.8,0.2-1.2-0.1c-0.8-0.7-1.7-1.2-3-1.2
			c-1.1,0-2.3,0.4-3.1,1.2c-0.4,0.3-0.8,0.5-1,0.1c-0.4-0.9-1.3-1.3-2.2-1.3c-1.2,0-2.1,0.6-3,1.6c-0.2,0.3,0.1,0.6,0.4,0.4
			c0.8-0.7,1.1-0.7,1.5-0.5c0.5,0.2,0.5,0.8,0.5,1.6v11.4c0,0.6,0.2,0.6,0.5,0.5l2.1-0.5c0.2-0.1,0.3-0.3,0.3-0.4v-7.7
			c0-4.2,1.5-5.4,3.1-5.4c1.5,0,1.8,1.2,1.8,2.9v10.6c0,0.6,0.2,0.6,0.5,0.5l2.1-0.6c0.1,0,0.3-0.2,0.3-0.4v-8.3
			c0-3.8,1.2-4.9,2.9-4.9c1.3,0,1.8,1.2,1.8,2.9v7c0,2.5,0.8,3.8,2.3,4.1C338,244.8,340.3,243.8,341.3,241.1z M314.8,237.2
			c0-3-1-5.1-7.5-9c-4.2-2.5-5.3-3.8-5.5-5.5c-0.5-3.1,2.5-4,4.9-3.9c3.7,0.2,4.4,2.5,3.8,3.9c-0.4,1,0,1.5,1.2,1.5
			c0.9,0,1.6-0.3,1.7-1.4c0.3-2.6-2.8-4.8-7.2-4.8c-3.8,0-6.8,1.5-7,4.8c-0.2,2.6,1,4.6,6.7,8c5,3.1,6.2,4.6,6.4,7.1
			c0.3,3.9-3.2,5.8-6.3,5.8c-4,0-6.3-2.7-6.2-5.5c0.2-3.4,2.8-4.2,4.9-2.7c0.4,0.3,0.7-0.1,0.4-0.5c-1.1-1.2-2.6-1.7-4.1-1.5
			c-2.7,0.3-3.9,2.8-3.5,5.4c0.5,2.9,4,5.5,8.4,5.5C312.2,244.4,314.8,240.1,314.8,237.2z"/>
		<path class="st1" d="M289.2,271.5c0-0.6,0.5-1,1-1c0.6,0,1,0.5,1,1s-0.5,1-1,1C289.7,272.6,289.2,272.1,289.2,271.5z M308.8,278.9
			c0.1-0.3-0.2-0.3-0.3-0.1c-0.4,0.9-1.1,1.7-1.8,1.4c-0.4-0.2-0.5-0.6-0.5-1.7v-3.6c0-2.3-1.3-3.1-3.2-3.1c-0.8,0-1.5,0.3-2.1,0.7
			c-0.2,0.1-0.4,0.1-0.4-0.4v-6.5c0-0.1-0.1-0.3-0.2-0.3l-1.2-0.4c-0.2-0.1-0.3,0-0.3,0.3v15.4c0,0.4,0.1,0.4,0.3,0.3l1.2-0.3
			c0.1-0.1,0.2-0.2,0.2-0.3V276c0-2.6,1.1-3.8,2.5-3.8c1.2,0,1.4,0.8,1.4,1.9v4.3c0,1.5,0.5,2.3,1.4,2.5
			C307.1,281.1,308.3,280.4,308.8,278.9z M298.9,279.2c0.1-0.3-0.2-0.4-0.3-0.1c-0.3,0.7-1.3,1.6-2.2,1.2c-0.4-0.1-0.6-0.5-0.6-1.3
			v-4.4c0-1.6,0.5-2.2,1.7-2.2h0.8c0.1,0,0.2-0.1,0.2-0.2c0-0.1-0.1-0.2-0.2-0.2h-1.8c-0.3,0-0.6-0.2-0.6-0.7v-1.1
			c0-0.2-0.1-0.3-0.2-0.3l-1.2-0.4c-0.2-0.1-0.3,0-0.3,0.3v9c0,1.2,0.5,1.9,1.4,2.1C297,281.1,298.2,280.6,298.9,279.2z
			 M294.6,278.9c-0.6,1.4-1.5,2-2.7,2c-1.2,0-2.2-0.7-2.2-2.6v-5.1c0.2,0.1,0.4,0.1,0.6,0.1c0.5,0,0.9-0.2,1.2-0.5v5.8
			c0,1.2,0.3,1.6,0.9,1.6c0.8,0,1.6-0.6,1.9-1.6C294.4,278.6,294.7,278.6,294.6,278.9z M288.6,274.9c0.1-1.9-0.6-2.7-1.6-3.2
			c-0.4-0.2-1.1,0-1.4,0.4c-0.4,0.5-0.3,1.1,0.1,1c1-0.1,1.6,1.1,1.5,2.5c-0.2,2.9-1.7,4.6-2.8,4.6c-0.6,0-0.7-0.3-0.7-1.3v-6.7
			c0-0.1-0.1-0.2-0.2-0.3l-1.3-0.3c-0.2-0.1-0.3,0-0.3,0.3v4.3c0,2.2-1.3,4-2.5,4c-0.5,0-0.5-0.5-0.5-1.3v-5.8
			c0-0.8-0.2-1.6-1.2-1.6c-0.8,0-1.7,0.6-2.2,1.2c-0.1,0.2,0.1,0.4,0.2,0.3c0.5-0.4,0.8-0.6,1.2-0.4c0.3,0.1,0.3,0.5,0.3,0.9v5
			c0,1.7,0.7,2.2,1.8,2.2c1.1,0,1.9-0.8,2.4-1.3c0.4-0.4,0.7-0.3,0.8,0.1c0.2,0.6,0.4,1.2,1.6,1.2
			C286.2,280.9,288.5,277.2,288.6,274.9z"/>
		<path class="st1" d="M297.5,259.5c0.2-0.8-0.6-0.9-0.9-0.2c-1.8,4.2-5.3,7-10.2,7c-6.9,0-12-6.7-12-15.7c0-9,4.9-14.8,11.6-14.8
			c4.1,0,7,1.8,7.5,4.6c0.2,1.1-0.3,2.2-1.4,2.5c-1.3,0.3-0.9,3.9,0.5,3.8c2.7-0.4,3.7-2.8,3.7-4.8c0-3.6-3.6-7.1-10.4-7.1
			c-8.6,0-15.7,6.4-15.7,16.8c0,9.9,7.2,16.9,16,16.9C291.8,268.3,296.2,264.1,297.5,259.5z M318.8,258.7c0-5.8-3.6-9.6-9.6-9.6
			c-5.9,0-9.5,3.8-9.5,9.6c0,5.8,3.6,9.6,9.5,9.6C315.2,268.3,318.8,264.5,318.8,258.7z M314.9,258.7c0,5.5-2.4,8.9-5.7,8.9
			c-3.3,0-5.6-3.4-5.6-8.9c0-5.5,2.4-8.9,5.6-8.9C312.6,249.8,314.9,253.2,314.9,258.7z M340.1,258.7c0-5.8-3.6-9.6-9.6-9.6
			c-6,0-9.5,3.8-9.5,9.6c0,5.8,3.6,9.6,9.5,9.6C336.5,268.3,340.1,264.5,340.1,258.7z M336.2,258.7c0,5.5-2.4,8.9-5.7,8.9
			c-3.3,0-5.6-3.4-5.6-8.9c0-5.5,2.4-8.9,5.6-8.9C333.8,249.8,336.2,253.2,336.2,258.7z M362.5,264c-1.2,3.2-3.9,4.8-6.7,4.1
			c-1.7-0.4-3.3-1.7-3.8-5.4c-0.5-4.6-0.9-5.6-2.6-5.4c-2,0.2-3.1,3.2-3.1,7.1v2.6c0,0.2-0.3,0.4-0.4,0.5l-2.6,0.7
			c-0.4,0.1-0.6,0.1-0.6-0.7v-21.8c0.5,0.1,1.1,0.2,1.6,0.2c0.7,0,1.4-0.1,2-0.3v10.1c0,1.4,0.6,1.7,1.4,0.8
			c3.5-3.9,6.2-7.6,9.2-7.6c1.3,0,1.9,0.5,2.4,1.2c0.6,1-1.9,3.8-2.7,2.3c-0.6-1.1-3.5-1.6-6.5,2.6c-0.4,0.5-0.1,1,0.6,0.9
			c1.8-0.3,4.1-0.2,4.7,5.2c0.4,3.8,1,4.8,2.3,5.4c1.9,0.9,3.6-1.3,4.2-2.9C362.2,263.3,362.8,263.5,362.5,264z M373.5,264
			c-1.2,2.9-3.1,4.2-5.7,4.2c-2.4,0-4.7-1.4-4.7-5.5v-10.6c0.5,0.2,1,0.3,1.5,0.3c0.9,0,1.6-0.3,2.3-0.8v12c0,2.5,0.7,3.4,1.9,3.4
			c1.7,0,3.3-1.2,4.1-3.3C373.1,263.3,373.7,263.5,373.5,264z M396.6,264c0.2-0.5-0.4-0.8-0.6-0.2c-0.6,1.8-2.5,3.9-4.3,3.1
			c-0.9-0.4-1.1-1.3-1.1-3.7v-7.6c0-4.8-1.6-6.5-5.7-6.5c-1.9,0-3.4,0.7-5,1.8c-0.5,0.4-1,0.4-1.3-0.2c-0.6-1.1-1.6-1.7-2.8-1.7
			c-1.4,0-2.7,0.8-3.8,2c-0.3,0.3,0.1,0.8,0.4,0.5c1-0.9,1.4-0.9,1.9-0.7c0.6,0.3,0.7,1.1,0.7,2.1v14.6c0,0.8,0.3,0.8,0.6,0.7
			l2.7-0.7c0.2-0.1,0.4-0.3,0.4-0.5v-10.5c0-4.4,3.2-6.5,5.3-6.5c2.3,0,2.8,1.4,2.8,4.8v8c0,3.2,0.9,4.8,3,5.3
			C392.5,268.7,395.2,267.8,396.6,264z M411.7,270.3v-20.7c0-0.3-0.1-0.4-0.4-0.3c-0.8,0.4-1.9,0.6-2.6,0.6c-1,0-1.4-0.7-3.9-0.7
			c-3.8,0-9.1,2.9-9.1,10c-0.1,5.8,3.3,9.2,6.6,9.2c2.5,0,4-1.3,4.7-2.6c0.2-0.4-0.2-0.5-0.4-0.3c-1.1,1.4-2.4,1.7-3.8,1.3
			c-2.8-0.7-3.7-4.1-3.6-7.8c0.1-5.5,2.9-8.8,5.5-8.8c2.2,0,3.4,1.4,3.4,3.6v15.2c0,6.2-3.5,7.8-6.9,7.3c-1.4-0.2-2.1-0.8-2.5,0.8
			c-0.4,1.6,0.1,2.3,1.6,2.3c2.8,0,4.9-1.1,7-4.3c1.2-1.8,2.8-3.6,4-4C411.5,270.7,411.7,270.5,411.7,270.3z M362.5,248.9
			c0-1.2,1-2.3,2.3-2.3c1.2,0,2.3,1,2.3,2.3c0,1.2-1,2.3-2.3,2.3C363.5,251.2,362.5,250.1,362.5,248.9z"/>
	</g>
	<g>
		<path class="st0" d="M416.7,247.2c-0.2-0.3-0.3-0.5-0.4-0.6c-0.1-0.1-0.2-0.2-0.4-0.3c0.3,0,0.5-0.2,0.7-0.3
			c0.2-0.2,0.2-0.4,0.2-0.6c0-0.2-0.1-0.4-0.2-0.5c-0.1-0.2-0.2-0.3-0.4-0.3c-0.2-0.1-0.4-0.1-0.8-0.1H414v3.4h0.7v-1.4h0.1
			c0.2,0,0.3,0,0.4,0c0.1,0,0.1,0.1,0.2,0.1c0.1,0.1,0.2,0.2,0.4,0.5l0.5,0.8h0.8L416.7,247.2z M415.3,245.9h-0.5V245h0.5
			c0.3,0,0.5,0,0.5,0c0.1,0,0.2,0.1,0.3,0.1c0.1,0.1,0.1,0.2,0.1,0.3c0,0.1,0,0.2-0.1,0.3c0,0.1-0.1,0.1-0.2,0.1
			C415.8,245.9,415.6,245.9,415.3,245.9z"/>
		<path class="st0" d="M415.5,243.1c-1.7,0-3,1.4-3,3c0,1.7,1.4,3,3,3c1.7,0,3-1.4,3-3C418.5,244.5,417.1,243.1,415.5,243.1z
			 M415.5,248.6c-1.3,0-2.4-1.1-2.4-2.4c0-1.3,1.1-2.4,2.4-2.4c1.3,0,2.4,1.1,2.4,2.4C417.9,247.5,416.8,248.6,415.5,248.6z"/>
	</g>
	<g>
		<g>
			<path class="st2" d="M621,266.8c0,1.3,0,2.6,0,3.9c0,1.2-0.8,2.1-1.9,2.1c-1.1,0-1.9-0.8-1.9-2.1c0-1.3,0-2.6,0-4
				c-0.5,0-0.9,0-1.3,0c-1.2,0-2.1-0.9-2.1-2.1c0-4,0-8.1,0-12.1c0-0.1,0-0.1,0-0.2c5.7,0,11.3,0,17.1,0c0,0.2,0,0.3,0,0.5
				c0,3.8,0,7.7,0,11.5c0,1.6-0.8,2.4-2.4,2.4c-0.3,0-0.7,0-1.1,0c0,0.4,0,0.7,0,1.1c0,1,0,2,0,3c0,1.1-0.8,1.9-1.8,2
				c-1.2,0-2-0.7-2-1.9c0-1.2,0-2.3,0-3.5c0-0.2,0-0.4,0-0.6C622.7,266.8,621.9,266.8,621,266.8z"/>
			<path class="st2" d="M626.5,244.8c2.7,1.5,4.2,3.7,4.4,6.9c-5.7,0-11.4,0-17.1,0c0.1-3.1,1.7-5.3,4.3-6.9
				c-0.4-0.7-0.8-1.4-1.2-2.1c-0.1-0.2-0.1-0.5,0-0.6c0.3-0.2,0.4,0.1,0.5,0.3c0.4,0.7,0.8,1.4,1.2,2.2c1.2-0.5,2.4-0.8,3.7-0.8
				c1.3,0,2.5,0.2,3.7,0.8c0.4-0.7,0.8-1.5,1.2-2.2c0.1-0.2,0.2-0.5,0.5-0.3c0.1,0,0.1,0.4,0,0.5C627.3,243.3,626.9,244,626.5,244.8
				z M618.4,248.6c0.4,0,0.7-0.3,0.7-0.7c0-0.4-0.3-0.7-0.7-0.7c-0.4,0-0.7,0.3-0.7,0.7C617.7,248.2,618,248.6,618.4,248.6z
				 M626.9,247.8c0-0.4-0.3-0.7-0.7-0.7c-0.4,0-0.7,0.3-0.7,0.7c0,0.4,0.4,0.7,0.8,0.7C626.6,248.5,626.9,248.2,626.9,247.8z"/>
			<path class="st2" d="M635.3,257.9c0,1.3,0,2.6,0,3.9c0,1.1-0.8,2-1.9,2c-1.1,0-1.9-0.8-1.9-2c0-1.6,0-3.3,0-4.9c0-1,0-2,0-3
				c0-1,0.7-1.8,1.6-1.9c1-0.1,1.8,0.4,2.1,1.4c0,0.2,0.1,0.4,0.1,0.5C635.3,255.2,635.3,256.6,635.3,257.9z"/>
			<path class="st2" d="M613.1,257.9c0,1.3,0,2.6,0,3.9c0,1.1-0.8,1.9-1.9,2c-1,0-1.9-0.8-1.9-1.9c0-2.7,0-5.3,0-8
				c0-1.1,0.9-1.9,1.9-1.9c1.1,0,1.9,0.8,1.9,1.9C613.1,255.2,613.1,256.6,613.1,257.9z"/>
		</g>
	</g>
	<g>
		<g>
			<path class="st2" d="M593.3,264.6c-0.5,1.7-1.3,3.3-2.4,4.8c-0.4,0.6-0.8,1.2-1.3,1.7c-1.5,1.6-2.8,2.1-5,1.3
				c-0.8-0.3-1.5-0.5-2.3-0.7c-1.3-0.3-2.5,0.1-3.7,0.6c-0.7,0.3-1.4,0.5-2.1,0.6c-1.1,0.1-2-0.4-2.7-1.1c-2.3-2.2-3.7-4.8-4.7-7.8
				c-0.6-2-1-4.1-0.8-6.2c0.3-3.4,1.7-6.2,5.1-7.6c1.7-0.7,3.4-0.6,5,0.1c2.9,1.1,2.1,1.1,5,0c2.3-0.8,4.5-0.8,6.7,0.3
				c1,0.5,1.8,1.3,2.3,2.1c-2.3,1.5-3.5,3.5-3.3,6.3C589.4,261.6,590.9,263.4,593.3,264.6z"/>
			<path class="st2" d="M580.8,249.1c-0.6-3.5,3.1-7.1,6-7C587.4,244.9,584.6,249.4,580.8,249.1z"/>
		</g>
	</g>
</g>
</svg>
