<svg id="Layer_1" data-name="Layer 1" xmlns="http://www.w3.org/2000/svg" viewBox="0 0 230.18 162.69"><defs><style>.cls-1,.cls-2{fill:#df2027;}.cls-2,.cls-3{fill-rule:evenodd;}.cls-3{fill:#231f20;}</style></defs><title>snhlogo</title><path class="cls-1" d="M207.11,33.34a3.57,3.57,0,1,0,3.56-3.56A3.56,3.56,0,0,0,207.11,33.34Zm-0.86,0a4.43,4.43,0,1,1,4.43,4.42A4.43,4.43,0,0,1,206.25,33.34Zm2.36,2.51v-5h2.15a3.72,3.72,0,0,1,1.18.14,1.18,1.18,0,0,1,.59.48,1.47,1.47,0,0,1,.22.79,1.35,1.35,0,0,1-.33.94,1.59,1.59,0,0,1-1,.46,2.52,2.52,0,0,1,.54.43,5.7,5.7,0,0,1,.58.82l0.61,1h-1.21l-0.73-1.1a7.2,7.2,0,0,0-.54-0.74,0.8,0.8,0,0,0-.31-0.21,1.69,1.69,0,0,0-.51-0.06h-0.21v2.11h-1Zm1-2.91h0.75a4,4,0,0,0,.92-0.06,0.56,0.56,0,0,0,.28-0.21,0.65,0.65,0,0,0,.1-0.38,0.61,0.61,0,0,0-.14-0.41,0.64,0.64,0,0,0-.38-0.2h-1.54v1.28ZM196,72.07a1.36,1.36,0,0,1,.48-0.08q0.82,1.88,2.28,4.69a5.33,5.33,0,0,0,5.09,2.76,3.87,3.87,0,0,0,2.81-1,3.73,3.73,0,0,0,1.09-2.82q0-1.77-2.22-2.93t-5.09-2.43a9.62,9.62,0,0,1-3.79-2.6A4.81,4.81,0,0,1,196,66.3v5.77Zm-54.12,1.34q0-.33-3.56-3.16t-6.43-5.57A21.21,21.21,0,0,1,128,60a18,18,0,0,0-1.34-2.27,0.85,0.85,0,0,0-.55-0.42,3.53,3.53,0,0,0-2.22,1.32,5,5,0,0,0-1.25,3.59q0,4.15,4.25,8.54t9.35,4.39a13.4,13.4,0,0,0,3.65-.57C141.18,74.22,141.84,73.82,141.84,73.42Zm5.68-54.19-1.29,1.88-1.92,1.31,1.93,1.3,1.27,1.88,1.32-1.9,1.88-1.28-1.91-1.31ZM75.24,61.11c0-.54-1,3.2-1,5.64,0,24.62,32.85,44.2,73.37,44.2s73.65-19.48,73.25-44a27.71,27.71,0,0,0-.92-6c0,21.56-32.36,39.18-72.33,39.18S75.24,82.67,75.24,61.11ZM195.9,88.34c13.78-6.77,22.3-16.67,22.4-26.64,0.08-8.14-6.2-16.37-16.49-23a1.87,1.87,0,0,1,.1.27q0,0.43-3,2T196,46.88V61.43a5.61,5.61,0,0,1,2.21-3,10.77,10.77,0,0,1,6.28-1.77,23.55,23.55,0,0,1,3.25.39Q210,57.41,210,58l0.38,4.58a0.57,0.57,0,0,1-.7.55A15.05,15.05,0,0,0,207,59.84a5.47,5.47,0,0,0-4-1.49,4,4,0,0,0-2.44.72,2.35,2.35,0,0,0-1,2.1q0,2,2.49,3.09,2.44,0.88,4.71,1.82a9.77,9.77,0,0,1,3.68,2.54,6.51,6.51,0,0,1,1.41,4.53,6.6,6.6,0,0,1-2.81,5.91,11.2,11.2,0,0,1-6.45,1.88,23.69,23.69,0,0,1-3.74-.33,9,9,0,0,1-2.82-.72l-0.1,7A12.55,12.55,0,0,1,195.9,88.34ZM99,88.33c12.63,6.26,29.69,10.14,48.49,10.14,18,0,34.54-3.62,47.06-9.46a1.48,1.48,0,0,1-.45-0.21,3.25,3.25,0,0,1-.77-0.71L159.62,51a2.07,2.07,0,0,0-1.26-.93q-0.56,0-.56,1.14V75.45q0,9,4.48,10.07t4.48,2.14a0.75,0.75,0,0,1-.7.78,9.69,9.69,0,0,1-2,.14l-8.26-.28-6,.28c-0.47,0-.82.07-1,0.07a0.92,0.92,0,0,1-1.13-.93c0-.57,1.13-1.5,3.36-2.78a6.5,6.5,0,0,0,3.36-6.07V77.2a7,7,0,0,1-3.23.74,8.06,8.06,0,0,1-3.88-1.08,22,22,0,0,1-3.66-2.6A13.59,13.59,0,0,1,138.42,77a22.19,22.19,0,0,1-6.2.94q-5.7,0-9-2.42l3.48,4.77q3.43,4.79,6,5.78t2.59,1.57a0.81,0.81,0,0,1-.91.93l-5.25-.28q-0.56,0-2.1.14c-1,.1-1.89.14-2.59,0.14a4,4,0,0,1-1.82-.36,6.28,6.28,0,0,1-1.61-1.71L107,67l-1.05-1.36a1.15,1.15,0,0,0-.7-0.64,2.49,2.49,0,0,0-1.4.93q-0.84.86-1.61,1.78a4.62,4.62,0,0,0-1,1.5,3.9,3.9,0,0,0-.21,1.21V80.88a4.7,4.7,0,0,0,3.43,4.92q3.43,1.14,3.43,1.93a0.67,0.67,0,0,1-.56.71,5.75,5.75,0,0,1-1.4.14Zm-9.43-47c-7.95,6.1-12.61,13.24-12.61,20.36,0,8.35,5.57,16.11,14.64,22.34a14.63,14.63,0,0,0,.87-5.73V47.24Q92.44,42.5,89.53,41.34Zm61.15-16.82-0.56.38-2.61,3.75L145,25l-0.68-.46c-20.15.52-38.09,6-50.39,13.76l0.95,0,9.73-.29c1,0,1.47.29,1.47,0.86s-0.84,1.24-2.52,1.57-2.52,2-2.52,5.28v17.5c0,0.38.16,0.55,0.35,0.5s0.91-.36,1.75-1.21l9.24-9.21q2.52-2.5,5.11-5,3.64-3.93,3.64-6,0-1.14-2.17-1.64t-2.1-1.28c0-.9.54-1.36,1.61-1.36l7.63,0.29,6.58-.29a3.11,3.11,0,0,1,1.33.21,0.89,0.89,0,0,1,.49,1q0,0.36-2.94,1.78a23.8,23.8,0,0,0-6.09,4.29L113.16,57A11.22,11.22,0,0,0,112.11,58a1.92,1.92,0,0,0-.49,1c0,0.43.56,1.41,1.68,2.93l5.63,7.73a9.76,9.76,0,0,1-.54-3.2,10.82,10.82,0,0,1,2.22-6.89c1.5-1.79,3.27-2.58,4.9-3.87-0.25-.73-0.48-1.43-0.7-2.13a9.91,9.91,0,0,1-.28-2.45,6.87,6.87,0,0,1,2.22-5.33,8,8,0,0,1,5.55-2,10.93,10.93,0,0,1,3.24.52l3.38,1.23a1.25,1.25,0,0,0,.74-0.33,1.38,1.38,0,0,1,.78-0.38,0.42,0.42,0,0,1,.42.19,2,2,0,0,1,.09.75,32.1,32.1,0,0,0,.33,3.78,32.57,32.57,0,0,1,.32,3.35c0,0.66-.23,1-0.69,1s-0.73-.71-1.16-2.12a10.51,10.51,0,0,0-2.59-4.15,6.44,6.44,0,0,0-4.86-2,3,3,0,0,0-2.4.94,3.73,3.73,0,0,0-.83,2.55q0,3,3.61,7.69a70.32,70.32,0,0,0,7.91,8.49q4.25,3.82,5,3.82,0.32,0,1.06-1.46a7.55,7.55,0,0,0,.74-3.35q0-3.45-2.64-4.15t-2.63-1.18q0-.66.88-0.66l4.76,0.19q1.16,0,2,0t1.8-.14a0.61,0.61,0,0,1,.74.61,1,1,0,0,1-.83.85q-0.84.28-1.16,2.5a22.62,22.62,0,0,1-1.06,4.53q-0.84,1.7-1.62,3.4,0,1.23,2.55,2.83c1.7,1,1.84,1.07,2.58,1.07a2.2,2.2,0,0,0,1.58-.7V51.74q0-8.07-3.92-10.07t-3.92-2.43A1.06,1.06,0,0,1,147.72,38q0.7,0,2.24.14l1.68,0.14L159,38a2,2,0,0,1,1.89.71,9.36,9.36,0,0,0,.77,1.14L189.8,71.38a17.91,17.91,0,0,0,1.33,1.36,1.59,1.59,0,0,0,.84.5q0.56,0,.56-2.64V46.81q0-3.79-4.27-5.36T184,39.24A1,1,0,0,1,185.11,38l8,0.29,7.49-.29h0.2C188.45,30.41,170.64,25,150.68,24.52Zm-3.14-8.35L150,19.83l2.12,1.47C192.93,22.79,224.2,43,224.2,68.13c0,25.38-34.29,46.18-76.59,46.18S71,93.51,71,68.13s31.78-45.39,71.89-46.84L145,19.85Zm56.57,32.76A7.08,7.08,0,0,1,202,53.71Q200,56,198.45,56a0.37,0.37,0,0,1-.42-0.43,7.36,7.36,0,0,1,1.29-1.39,3.79,3.79,0,0,0,1.33-2.74,3,3,0,0,0-1.25-2.38,5.06,5.06,0,0,1-1.22-1.24,2.43,2.43,0,0,1,.91-1.14c0.63-.57,1.11-1,1.46-1.35a1.47,1.47,0,0,1,.91-0.5,2.27,2.27,0,0,1,1.78,1.28A4.88,4.88,0,0,1,204.11,48.94Z" transform="translate(-35.43 -16.17)"/><path class="cls-2" d="M48.2,159.2c13.4,8.44,50.48,15.39,98.84,15.39,52,0,89.2-8.56,100-18.43-5.1,10.37-35.47,22.71-100,22.71C85.63,178.86,55.86,167.34,48.2,159.2Z" transform="translate(-35.43 -16.17)"/><path class="cls-3" d="M149.76,146a2.26,2.26,0,0,1,1.07,1,3.12,3.12,0,0,1,.37,1.53,5.71,5.71,0,0,1-2.2,4.21,8,8,0,0,1-5.52,2,6.72,6.72,0,0,1-4.65-1.45,4.77,4.77,0,0,1-1.62-3.72,6.09,6.09,0,0,1,1-3.28,5.35,5.35,0,0,1,2.59-2.17,3,3,0,0,1-.14-0.62,6,6,0,0,1,0-.72,4.55,4.55,0,0,1,1.41-3.37,4.69,4.69,0,0,1,3.42-1.39,3.26,3.26,0,0,1,1.8.51,1.66,1.66,0,0,1,.79,1.48,1.68,1.68,0,0,1-.46,1.16,1.43,1.43,0,0,1-1.11.49c-0.29,0-.44-0.1-0.44-0.3a1.17,1.17,0,0,1,.19-0.62,1,1,0,0,0,.18-0.44,0.82,0.82,0,0,0-.58-0.76,2.64,2.64,0,0,0-1.11-.25,3.29,3.29,0,0,0-2.22,1,3.55,3.55,0,0,0-1.06,2.73v0.39a1.67,1.67,0,0,0,.07.39l0.67-.25a3.54,3.54,0,0,1,1.06-.12,2.74,2.74,0,0,1,1.39.35,1.12,1.12,0,0,1,.6,1.06,1.58,1.58,0,0,1-.55,1.27,2.28,2.28,0,0,1-2.75,0,3.39,3.39,0,0,1-.93-1.25,3.59,3.59,0,0,0-2.06,3.47,5.5,5.5,0,0,0,1.55,4,5.27,5.27,0,0,0,3.91,1.6,6.33,6.33,0,0,0,3.79-1.32,4,4,0,0,0,1.83-3.28,2.43,2.43,0,0,0-.55-1.69,2.08,2.08,0,0,0-1.64-.63,1.75,1.75,0,0,0-1.85,1.85,1.51,1.51,0,0,0,.23.76,0.66,0.66,0,0,0,.55.37,1,1,0,0,0,.72-0.25,0.74,0.74,0,0,1,.37-0.25,0.18,0.18,0,0,1,.23.19,0.88,0.88,0,0,1-.44.79,1.79,1.79,0,0,1-1,.28,1.4,1.4,0,0,1-1.29-.76,3.23,3.23,0,0,1-.44-1.64,2.41,2.41,0,0,1,1-2.05,11.77,11.77,0,0,1,3-1.46,18.18,18.18,0,0,0,3.47-1.71,3,3,0,0,0,1.5-2.59,1.73,1.73,0,0,0-.46-1.27,1.6,1.6,0,0,0-1.25-.49,1.13,1.13,0,0,0-.88.42,1.2,1.2,0,0,0-.35.79,0.65,0.65,0,0,0,.62.63,0.61,0.61,0,0,1,.63.48,1,1,0,0,1-.28.65,0.91,0.91,0,0,1-.7.3,1.19,1.19,0,0,1-1-.44,1.91,1.91,0,0,1-.32-1.13,2.18,2.18,0,0,1,.69-1.66,2.61,2.61,0,0,1,3.58.14,2.84,2.84,0,0,1,.72,2,4,4,0,0,1-1.5,3.07A13.26,13.26,0,0,1,149.76,146ZM143,144a2.48,2.48,0,0,0-.72.09,2.27,2.27,0,0,0-.65.28,1.57,1.57,0,0,0,1.69,1.18,0.63,0.63,0,0,0,.48-0.23,0.78,0.78,0,0,0,.23-0.53,0.75,0.75,0,0,0-.21-0.56A1.06,1.06,0,0,0,143,144Zm-17.82-4.11,0.11-.88a3.54,3.54,0,0,0,0-.46c0-.25-0.28-0.38-0.83-0.39s-0.8-.09-0.8-0.23,0.3-.31.9-0.37,1.07-.14,1.34-0.21l0.56-.14a1,1,0,0,1,.3,0c0.19,0,.28.07,0.28,0.21l-0.09.72-1.23,8.2a7.72,7.72,0,0,1,1.5-1.39,3.06,3.06,0,0,1,1.73-.62,1.58,1.58,0,0,1,1.52.83,4,4,0,0,1,.46,2c0,0.39,0,.76,0,1.13l-0.16,1.62c-0.09.63-.15,1.09-0.19,1.39a8.17,8.17,0,0,0,0,.88,1.72,1.72,0,0,0,.12.72,0.42,0.42,0,0,0,.37.23,1.23,1.23,0,0,0,.79-0.51,1.46,1.46,0,0,1,.63-0.51c0.21,0.43-.09.86-0.67,1.48a2.45,2.45,0,0,1-1.75.9,0.76,0.76,0,0,1-.79-0.44,3.45,3.45,0,0,1-.16-1.15c0-.66,0-1.48.11-2.45l0.28-3a2.94,2.94,0,0,0-.28-1.39,1,1,0,0,0-1-.51q-1.36,0-2.2,1.8a15.45,15.45,0,0,0-1.13,4.41c-0.2,1.74-.38,2.61-0.53,2.61h-0.86a0.93,0.93,0,0,1-.37,0,0.29,0.29,0,0,1-.09-0.28q0-.11.51-3.17l0.65-3.79Zm-4.62,4.9a1.9,1.9,0,0,1,.51,0,0.37,0.37,0,0,1,.14.39,0.36,0.36,0,0,1-.16.37,1.77,1.77,0,0,1-.49,0h-1.78a12.31,12.31,0,0,0-.6,2.91c-0.29,1.93-.44,3.06-0.44,3.4a1.67,1.67,0,0,0,.21,1,0.89,0.89,0,0,0,.69.26,1.84,1.84,0,0,0,1.15-.42l1.06-.9a0.27,0.27,0,0,1,.23.21,3.27,3.27,0,0,1-1.16,1.48,3.31,3.31,0,0,1-2.26,1.08,1.18,1.18,0,0,1-1.13-.6,3.37,3.37,0,0,1-.3-1.5,25.7,25.7,0,0,1,.26-2.59l0.58-4.07c0-.2-0.17-0.3-0.51-0.3h-0.46a0.25,0.25,0,0,1-.23-0.26,0.51,0.51,0,0,1,.26-0.3,7,7,0,0,1,.79-0.46,4.76,4.76,0,0,0,1.27-1.16,4.6,4.6,0,0,1,.85-0.9,0.22,0.22,0,0,1,.25.25,5.51,5.51,0,0,0-.12.56l-0.3,1.48h1.69Zm-9.33-4.9,0.09-.76a4.86,4.86,0,0,0,.07-0.58c0-.25-0.28-0.38-0.83-0.39s-0.81-.09-0.81-0.23,0.3-.31.9-0.37,1.07-.14,1.34-0.21l0.56-.14a1,1,0,0,1,.3,0c0.19,0,.28.07,0.28,0.21l-0.51,3-1.48,11-0.12,1a1.43,1.43,0,0,0,.09.53,0.36,0.36,0,0,0,.32.21,1.79,1.79,0,0,0,1.14-.83,4,4,0,0,1,.78-0.85,0.23,0.23,0,0,1,.26.25,3.34,3.34,0,0,1-1,1.71,2.91,2.91,0,0,1-2.15,1.13,0.76,0.76,0,0,1-.72-0.44,2.61,2.61,0,0,1-.21-1.11,8.39,8.39,0,0,1,0-.95l0.14-1.06Zm-8,4.39a1.21,1.21,0,0,1,.39.07,1.94,1.94,0,0,1,.44.16l0.46,0.18a1.76,1.76,0,0,0,.51.07,1.09,1.09,0,0,0,.53-0.49,1.26,1.26,0,0,1,.49-0.49,24.18,24.18,0,0,1-.53,4.09,25.3,25.3,0,0,0-.41,4.09,1.87,1.87,0,0,0,.14.81,0.47,0.47,0,0,0,.44.25,1.14,1.14,0,0,0,.76-0.69,1.42,1.42,0,0,1,.58-0.69c0.22,0,.32.07,0.32,0.23a3.7,3.7,0,0,1-.76,1.5,2.06,2.06,0,0,1-1.57,1.08,1.12,1.12,0,0,1-1.06-.76,4.21,4.21,0,0,1-.33-1.66,9.28,9.28,0,0,1-1.87,1.85,3.86,3.86,0,0,1-2.28.74,1.85,1.85,0,0,1-1.64-.74,3.49,3.49,0,0,1-.49-1.94,9,9,0,0,1,1.85-5Q101.08,144.32,103.26,144.32Zm-2.82,9.17a2.9,2.9,0,0,0,2.15-1,3,3,0,0,0,1-1.5q0-.14.44-2.38a24.46,24.46,0,0,0,.44-2.64,0.79,0.79,0,0,0-.33-0.6,1.4,1.4,0,0,0-1-.3q-1.54,0-2.91,2.29a8.44,8.44,0,0,0-1.36,4.27,2.26,2.26,0,0,0,.39,1.41A1.5,1.5,0,0,0,100.44,153.49ZM89,149c0,0.12.18,0.18,0.53,0.18a5.16,5.16,0,0,0,2.57-.79,2.36,2.36,0,0,0,1.38-2.1,1,1,0,0,0-1.18-1.18A2.85,2.85,0,0,0,90,146.61,4.87,4.87,0,0,0,89,149Zm3.86-4.65a2.35,2.35,0,0,1,1.43.44,1.67,1.67,0,0,1,.6,1.48,2.76,2.76,0,0,1-1.8,2.54,8.35,8.35,0,0,1-3.58.86,1.23,1.23,0,0,0-.55.07,0.89,0.89,0,0,0-.09.55,3.3,3.3,0,0,0,.76,2.45,3,3,0,0,0,2.17.74,3.58,3.58,0,0,0,1.57-.33l1.25-.71a0.2,0.2,0,0,1,.25.21,3.22,3.22,0,0,1-1.15,1.16,4.81,4.81,0,0,1-3.08.9,3.13,3.13,0,0,1-2.41-.95,3.66,3.66,0,0,1-.86-2.5,7.39,7.39,0,0,1,1.76-4.74A4.94,4.94,0,0,1,92.89,144.32Zm-13.42,3.05,0-.53a0.39,0.39,0,0,0-.09-0.3,0.5,0.5,0,0,0-.37-0.09h-8.3a1.16,1.16,0,0,0-.33.81L70,151.85l-0.07.76A1.11,1.11,0,0,0,71,153.75Q72,154,72,154.24a0.23,0.23,0,0,1-.25.28l-2.59-.09-2.36.09a0.25,0.25,0,0,1-.3-0.28c0-.17.25-0.3,0.76-0.39a1,1,0,0,0,.88-1l1.2-10.93,0.07-1.2,0-.58a1.19,1.19,0,0,0-1-1.18,1.27,1.27,0,0,1-1-.58c0-.17.13-0.26,0.4-0.26L70,138.24l2.75-.09a0.26,0.26,0,0,1,.28.3,3.09,3.09,0,0,1-.85.49,1.51,1.51,0,0,0-.95,1.3l-0.44,4.44-0.07.62c0,0.2.2,0.3,0.6,0.3h7.74a0.69,0.69,0,0,0,.65-0.78L80,141.94l0.07-.88,0.09-.9a1.19,1.19,0,0,0-1-1.18,1.26,1.26,0,0,1-1-.58c0-.17.13-0.26,0.39-0.26l2.17,0.09,2.75-.09a0.26,0.26,0,0,1,.28.3,3.09,3.09,0,0,1-.86.49,1.52,1.52,0,0,0-.95,1.3l-1.29,11.62-0.07.76a1.15,1.15,0,0,0,1.16,1.13q1.15,0.21,1.15.49c0,0.18-.15.28-0.44,0.28l-2.59-.09-2.36.09a0.25,0.25,0,0,1-.3-0.25,0.89,0.89,0,0,1,.78-0.42,1,1,0,0,0,.86-1ZM63.29,145a4.24,4.24,0,0,1-.25,1,0.94,0.94,0,0,1-.51.76,2.18,2.18,0,0,1-.37-0.53,1,1,0,0,0-.83-0.53,1.19,1.19,0,0,0-1.09,1,16.48,16.48,0,0,0-.55,2.29L59,153.73c0,0.46-.15.69-0.3,0.69H57.82a0.93,0.93,0,0,1-.37,0,0.3,0.3,0,0,1-.09-0.28q0.53-3,.72-4.3a13.37,13.37,0,0,0,.21-1.64,5.62,5.62,0,0,0-.16-1.45,0.74,0.74,0,0,0-.79-0.6,1.19,1.19,0,0,0-.81.9,1.37,1.37,0,0,1-.64.9c-0.09,0-.14-0.15-0.14-0.44a4.61,4.61,0,0,1,.58-2,1.71,1.71,0,0,1,1.39-1.18,1.39,1.39,0,0,1,1.06.69,3.06,3.06,0,0,1,.51,1.87l1.11-1.43a2.74,2.74,0,0,1,1.87-1.13,1.17,1.17,0,0,1,.69.23A0.61,0.61,0,0,1,63.29,145Zm-14.85,9.15a2.92,2.92,0,0,0,2.84-2,10.48,10.48,0,0,0,.85-4.23,4.42,4.42,0,0,0-.48-2.27,1.85,1.85,0,0,0-1.78-.83,2.86,2.86,0,0,0-2.73,1.92,10,10,0,0,0-.85,4.07,5.73,5.73,0,0,0,.44,2.36A1.73,1.73,0,0,0,48.44,154.14Zm-3.7-3.51a7.16,7.16,0,0,1,1.43-4.32,4.39,4.39,0,0,1,3.72-2,3.45,3.45,0,0,1,2.8,1.18,4.45,4.45,0,0,1,1,3,6.87,6.87,0,0,1-1.46,4.3,4.58,4.58,0,0,1-3.79,1.87,3.42,3.42,0,0,1-2.73-1.11A4.35,4.35,0,0,1,44.74,150.63ZM39,144.83a3.63,3.63,0,0,0,.44-1.34q0.32-1.34.78-2.68a6,6,0,0,1,1.5-2.36,3.11,3.11,0,0,1,2.18-1,1.47,1.47,0,0,1,.85.16,0.68,0.68,0,0,1,.18.53,5.4,5.4,0,0,1-.07,1,0.34,0.34,0,0,1-.32.37,1.59,1.59,0,0,1-.49-0.51,1.21,1.21,0,0,0-1-.51c-0.57,0-1.09.68-1.57,2a11.69,11.69,0,0,0-.72,3.93,1.3,1.3,0,0,0,0,.39h1.46a1.94,1.94,0,0,1,.51,0,0.38,0.38,0,0,1,.14.39,0.36,0.36,0,0,1-.17.37,1.75,1.75,0,0,1-.48,0H41a0.44,0.44,0,0,0-.53.32l0,0.55-1,8.44a5.32,5.32,0,0,1-1.2,3.07,2.84,2.84,0,0,1-2.17,1.11,0.58,0.58,0,0,1-.7-0.6,3.2,3.2,0,0,1,.19-1.06A0.58,0.58,0,0,1,36,157a0.66,0.66,0,0,1,.34.58,0.64,0.64,0,0,0,.44.6,1.26,1.26,0,0,0,.53-0.16,1.75,1.75,0,0,0,.48-1.36l1.22-10.75-1.45-.21a1.88,1.88,0,0,1-.51,0,0.56,0.56,0,0,1,0-.74,1.36,1.36,0,0,1,.51-0.07H39Zm215.21,7.65c0-.61-0.58-1.51-1.76-2.68s-1.75-2.13-1.75-2.82a2.26,2.26,0,0,1,.92-2.08,4,4,0,0,1,2.13-.58,2.29,2.29,0,0,1,1.57.46,1.25,1.25,0,0,1,.53.88,0.54,0.54,0,0,1-.23.51,0.85,0.85,0,0,1-.48.14,1.12,1.12,0,0,1-.95-0.72,1.16,1.16,0,0,0-1.92-.35,1.38,1.38,0,0,0-.32,1q0,0.72,1.78,2.41a4.56,4.56,0,0,1,1.8,3.17,2.48,2.48,0,0,1-1.06,2.17,4.1,4.1,0,0,1-2.38.71,4.78,4.78,0,0,1-1.78-.35,1.22,1.22,0,0,1-.86-1.2,0.88,0.88,0,0,1,.19-0.46,0.64,0.64,0,0,1,.51-0.19,1.18,1.18,0,0,1,.93.81,1.34,1.34,0,0,0,1.25.78,2.08,2.08,0,0,0,1.36-.44A1.42,1.42,0,0,0,254.2,152.48Zm-8.89,0q0-.92-1.76-2.68T241.8,147a2.26,2.26,0,0,1,.92-2.08,4,4,0,0,1,2.13-.58,2.27,2.27,0,0,1,1.57.46,1.24,1.24,0,0,1,.53.88,0.53,0.53,0,0,1-.23.51,0.86,0.86,0,0,1-.48.14,1.12,1.12,0,0,1-.95-0.72,1.18,1.18,0,0,0-1-.72,1.17,1.17,0,0,0-.88.37,1.38,1.38,0,0,0-.32,1q0,0.72,1.78,2.41a4.58,4.58,0,0,1,1.8,3.17,2.49,2.49,0,0,1-1.06,2.17,4.12,4.12,0,0,1-2.38.71,4.8,4.8,0,0,1-1.78-.35,1.22,1.22,0,0,1-.86-1.2,1,1,0,0,1,.19-0.46,0.64,0.64,0,0,1,.51-0.19,1.18,1.18,0,0,1,.93.81,1.34,1.34,0,0,0,1.25.78,2.08,2.08,0,0,0,1.36-.44A1.43,1.43,0,0,0,245.31,152.48ZM232.19,149c0,0.12.18,0.18,0.53,0.18a5.15,5.15,0,0,0,2.57-.79,2.36,2.36,0,0,0,1.38-2.1,1,1,0,0,0-1.18-1.18,2.84,2.84,0,0,0-2.31,1.53A4.83,4.83,0,0,0,232.19,149Zm3.86-4.65a2.36,2.36,0,0,1,1.43.44,1.67,1.67,0,0,1,.6,1.48,2.76,2.76,0,0,1-1.8,2.54,8.33,8.33,0,0,1-3.58.86,1.21,1.21,0,0,0-.55.07,0.87,0.87,0,0,0-.09.55,3.32,3.32,0,0,0,.76,2.45,3,3,0,0,0,2.17.74,3.56,3.56,0,0,0,1.57-.33l1.25-.71a0.21,0.21,0,0,1,.25.21,3.2,3.2,0,0,1-1.16,1.16,4.79,4.79,0,0,1-3.07.9,3.11,3.11,0,0,1-2.4-.95,3.63,3.63,0,0,1-.86-2.5,7.37,7.37,0,0,1,1.75-4.74A4.93,4.93,0,0,1,236.05,144.32Zm-9.59,8.18c0,0.45.12,0.67,0.35,0.67a1.13,1.13,0,0,0,.79-0.39l0.83-.86c0.15,0,.23,0,0.23.14a2.72,2.72,0,0,1-.93,1.48,2.6,2.6,0,0,1-1.83,1,0.85,0.85,0,0,1-.72-0.3A2.27,2.27,0,0,1,225,153c0-.37,0-1.12.14-2.26l0.34-3.58,0-.35a1.41,1.41,0,0,0-.37-1,1.73,1.73,0,0,0-1.37-.42,2.12,2.12,0,0,0-1.91,1.55,10.81,10.81,0,0,0-.86,3.17l-0.55,3.61c0,0.46-.15.69-0.3,0.69h-0.85a0.94,0.94,0,0,1-.37,0,0.29,0.29,0,0,1-.09-0.28c0-.24.16-1.37,0.48-3.37s0.51-3.13.51-3.38a9.49,9.49,0,0,0,0-1.06,0.39,0.39,0,0,0-.44-0.37,1.14,1.14,0,0,0-1,.69,1.28,1.28,0,0,1-.53.67,0.23,0.23,0,0,1-.23-0.28,2.92,2.92,0,0,1,.74-1.71,2,2,0,0,1,1.48-1,0.81,0.81,0,0,1,.83.58,3.69,3.69,0,0,1,.23,1.36l0,0.39V147a8,8,0,0,1,1.78-1.85,3.49,3.49,0,0,1,2.11-.81,2,2,0,0,1,1.69.71,3.14,3.14,0,0,1,.53,1.94c0,0.46-.08,1.43-0.23,2.89S226.46,152.21,226.46,152.5Zm-11.85-10.79a0.86,0.86,0,0,1-.53-0.56,2.06,2.06,0,0,1-.3-0.79,1.38,1.38,0,0,1,.35-0.72,1,1,0,0,1,.6-0.49,0.86,0.86,0,0,1,.53.56,2,2,0,0,1,.3.78,1.48,1.48,0,0,1-.37.74A0.94,0.94,0,0,1,214.61,141.71ZM213.87,153a1.31,1.31,0,0,0,.81-0.69,2.18,2.18,0,0,1,.63-0.71,0.2,0.2,0,0,1,.23.23,3.47,3.47,0,0,1-.9,1.6,2.34,2.34,0,0,1-1.71,1.13,0.76,0.76,0,0,1-.72-0.46,2.23,2.23,0,0,1-.23-1,19.35,19.35,0,0,1,.37-3.19q0.37-2,.79-4.16a0.27,0.27,0,0,0-.23-0.3,2.21,2.21,0,0,0-.65-0.07,3.44,3.44,0,0,1-.69,0,0.25,0.25,0,0,1-.18-0.28c0-.15.3-0.25,0.92-0.3s1.07-.09,1.31-0.11a4.06,4.06,0,0,0,.65-0.16,1.27,1.27,0,0,1,.37-0.11,0.26,0.26,0,0,1,.32.25q-0.37,1.67-.92,4.32a23,23,0,0,0-.53,3.47C213.51,152.76,213.63,153,213.87,153Zm-12.17-7.44a3,3,0,0,0-.69.23l-0.65.28a0.23,0.23,0,0,1-.25-0.28,0.61,0.61,0,0,1,.46-0.46,8.78,8.78,0,0,1,1.25-.46,14.37,14.37,0,0,0,.21-1.43c0.06-.6.11-1,0.16-1.23a0.83,0.83,0,0,1,.51-0.53,2,2,0,0,1,.74-0.19,0.26,0.26,0,0,1,.26.32c0,0.08,0,.37-0.12.88l-0.21,1.6a0.2,0.2,0,0,0,.21.25l0.69-.12a6.49,6.49,0,0,1,1-.07,4.16,4.16,0,0,1,2.8.95,3.53,3.53,0,0,1,1.13,2.87,7.16,7.16,0,0,1-1.66,4.42,5.6,5.6,0,0,1-4.67,2.13,5.94,5.94,0,0,0-.69-0.09,1.79,1.79,0,0,0-.32,1.13,13.56,13.56,0,0,0-.16,1.83,0.92,0.92,0,0,0,.9,1,1.14,1.14,0,0,1,.92.3c0,0.17-.11.25-0.34,0.25l-2.42-.09-1.48.09c-0.24,0-.37-0.08-0.37-0.23a0.62,0.62,0,0,1,.58-0.42,1,1,0,0,0,.69-1Zm0.53,7.26a5.38,5.38,0,0,0,0,.69,0.66,0.66,0,0,0,.81.67,3.88,3.88,0,0,0,3.38-1.73,6.85,6.85,0,0,0,1.2-4,3.19,3.19,0,0,0-1-2.68,3.31,3.31,0,0,0-2.13-.81H204.2a1.67,1.67,0,0,0-.74.14,0.55,0.55,0,0,0-.32.49Zm-12-7.26a3.11,3.11,0,0,0-.7.23l-0.65.28a0.23,0.23,0,0,1-.25-0.28,0.61,0.61,0,0,1,.46-0.46,8.87,8.87,0,0,1,1.24-.46,12.28,12.28,0,0,0,.21-1.43c0.06-.6.11-1,0.16-1.23a0.83,0.83,0,0,1,.51-0.53,2,2,0,0,1,.74-0.19,0.26,0.26,0,0,1,.25.32c0,0.08,0,.37-0.12.88l-0.21,1.6a0.2,0.2,0,0,0,.21.25l0.7-.12a6.43,6.43,0,0,1,1-.07,4.15,4.15,0,0,1,2.8.95,3.53,3.53,0,0,1,1.13,2.87,7.14,7.14,0,0,1-1.66,4.42,5.58,5.58,0,0,1-4.67,2.13,5.87,5.87,0,0,0-.69-0.09,1.79,1.79,0,0,0-.32,1.13,13.85,13.85,0,0,0-.16,1.83,0.92,0.92,0,0,0,.9,1,1.15,1.15,0,0,1,.92.3c0,0.17-.11.25-0.35,0.25l-2.43-.09-1.48.09c-0.25,0-.37-0.08-0.37-0.23a0.62,0.62,0,0,1,.58-0.42,1,1,0,0,0,.7-1Zm0.53,7.26a4.71,4.71,0,0,0,0,.69,0.66,0.66,0,0,0,.81.67,3.87,3.87,0,0,0,3.38-1.73,6.85,6.85,0,0,0,1.2-4,3.19,3.19,0,0,0-1-2.68A3.3,3.3,0,0,0,193,145h-0.23a1.66,1.66,0,0,0-.74.14,0.55,0.55,0,0,0-.32.49Zm-8-8.46a1.23,1.23,0,0,1,.39.07,2,2,0,0,1,.44.16l0.46,0.18a1.73,1.73,0,0,0,.51.07,1.09,1.09,0,0,0,.53-0.49,1.26,1.26,0,0,1,.48-0.49,24.13,24.13,0,0,1-.53,4.09,25.34,25.34,0,0,0-.42,4.09,1.87,1.87,0,0,0,.14.81,0.46,0.46,0,0,0,.44.25,1.13,1.13,0,0,0,.76-0.69,1.42,1.42,0,0,1,.58-0.69c0.21,0,.32.07,0.32,0.23a3.73,3.73,0,0,1-.76,1.5,2.06,2.06,0,0,1-1.57,1.08,1.12,1.12,0,0,1-1.07-.76,4.25,4.25,0,0,1-.32-1.66,9.28,9.28,0,0,1-1.87,1.85,3.87,3.87,0,0,1-2.29.74,1.86,1.86,0,0,1-1.64-.74,3.51,3.51,0,0,1-.48-1.94,9,9,0,0,1,1.85-5Q180.61,144.32,182.78,144.32ZM180,153.49a2.89,2.89,0,0,0,2.15-1,3,3,0,0,0,1-1.5c0-.09.14-0.89,0.44-2.38a24.45,24.45,0,0,0,.44-2.64,0.79,0.79,0,0,0-.33-0.6,1.39,1.39,0,0,0-1-.3c-1,0-2,.76-2.91,2.29a8.43,8.43,0,0,0-1.37,4.27,2.25,2.25,0,0,0,.4,1.41A1.49,1.49,0,0,0,180,153.49Zm-9.17-6.12,0-.53a0.36,0.36,0,0,0-.09-0.3,0.48,0.48,0,0,0-.37-0.09h-8.3a1.15,1.15,0,0,0-.32.81l-0.46,4.6-0.07.76a1.11,1.11,0,0,0,1.07,1.13c0.71,0.14,1.06.3,1.06,0.49a0.24,0.24,0,0,1-.26.28l-2.59-.09-2.36.09a0.25,0.25,0,0,1-.3-0.28c0-.17.26-0.3,0.76-0.39a1,1,0,0,0,.88-1l1.2-10.93,0.07-1.2,0-.58a1.19,1.19,0,0,0-1-1.18,1.26,1.26,0,0,1-1-.58c0-.17.13-0.26,0.39-0.26l2.17,0.09,2.75-.09a0.26,0.26,0,0,1,.28.3,3.17,3.17,0,0,1-.86.49,1.51,1.51,0,0,0-.94,1.3l-0.44,4.44-0.07.62c0,0.2.2,0.3,0.6,0.3h7.74a0.69,0.69,0,0,0,.65-0.78l0.28-2.87,0.07-.88,0.09-.9a1.19,1.19,0,0,0-1-1.18,1.26,1.26,0,0,1-1-.58c0-.17.13-0.26,0.39-0.26l2.18,0.09,2.75-.09a0.26,0.26,0,0,1,.28.3,3.09,3.09,0,0,1-.86.49,1.53,1.53,0,0,0-.95,1.3L172,151.85l-0.07.76a1.15,1.15,0,0,0,1.15,1.13c0.77,0.14,1.16.3,1.16,0.49s-0.14.28-.44,0.28l-2.59-.09-2.36.09a0.25,0.25,0,0,1-.3-0.25,0.9,0.9,0,0,1,.79-0.42,1,1,0,0,0,.86-1Z" transform="translate(-35.43 -16.17)"/><path class="cls-3" d="M260.72,144.83h0.67a3.37,3.37,0,0,0,.81-0.06,0.47,0.47,0,0,0,.26-0.19,0.58,0.58,0,0,0,.09-0.34,0.54,0.54,0,0,0-.12-0.37,0.55,0.55,0,0,0-.35-0.18,6.34,6.34,0,0,0-.66,0h-0.71v1.14Zm-0.91,2.6v-4.5h1.92a3.29,3.29,0,0,1,1.05.12,1,1,0,0,1,.52.43,1.29,1.29,0,0,1,.2.71,1.19,1.19,0,0,1-.3.84,1.4,1.4,0,0,1-.88.42,2.19,2.19,0,0,1,.48.38,5.07,5.07,0,0,1,.52.73l0.55,0.88h-1.08l-0.66-1a6.9,6.9,0,0,0-.48-0.66,0.73,0.73,0,0,0-.27-0.19,1.6,1.6,0,0,0-.46-0.05h-0.18v1.88h-0.91Zm-2.11-2.25a4,4,0,1,1,4,4A4,4,0,0,1,257.7,145.18Zm0.77,0a3.18,3.18,0,1,0,3.18-3.18A3.18,3.18,0,0,0,258.47,145.18Z" transform="translate(-35.43 -16.17)"/></svg>